<svg width="35" height="35" viewBox="0 0 35 35" fill="none" xmlns="http://www.w3.org/2000/svg">
<path d="M17.5 0C7.83106 0 0 7.95015 0 17.7661C0 26.1154 5.64319 33.045 13.2568 34.9985C13.1689 34.7762 13.1257 34.4648 13.1257 34.1548V31.1338H10.9379C9.75681 31.1338 8.66213 30.6016 8.18106 29.6233C7.61213 28.5573 7.52426 26.9138 6.08106 25.8917C5.64319 25.5363 5.99319 25.181 6.47426 25.2249C7.39319 25.491 8.13638 26.1139 8.83638 27.0453C9.53638 27.9782 9.84319 28.2005 11.1553 28.2005C11.7674 28.2005 12.7296 28.1567 13.6053 28.0221C14.0864 26.7777 14.9174 25.6679 15.9243 25.1357C10.0621 24.425 7.26213 21.4932 7.26213 17.4955C7.26213 15.7627 8.00532 14.1191 9.23106 12.6979C8.83787 11.3204 8.31213 8.47784 9.40681 7.36802C12.0326 7.36802 13.6068 9.10079 14 9.54381C15.3121 9.09928 16.7568 8.83316 18.2432 8.83316C19.7743 8.83316 21.1743 9.09928 22.4864 9.54381C22.8796 9.09928 24.4553 7.36802 27.0796 7.36802C28.1296 8.43399 27.6485 11.3204 27.2106 12.6979C28.4364 14.0753 29.1364 15.7627 29.1364 17.4955C29.1364 21.4932 26.3796 24.425 20.5621 25.0464C22.1811 25.8901 23.3189 28.2882 23.3189 30.0648V34.1109C23.3189 34.244 23.2757 34.3771 23.2757 34.5101C30.1 32.1121 35 25.5394 35 17.7661C35 7.95015 27.1689 0 17.5 0Z" fill="#E68D3C"/>
</svg>
