<svg width="31" height="30" viewBox="0 0 31 30" fill="none" xmlns="http://www.w3.org/2000/svg">
<path d="M15.5 2.89867C19.5728 2.89867 20.0552 2.91373 21.6637 2.98475C23.1509 3.05043 23.9584 3.29084 24.496 3.49299C25.1585 3.72962 25.7578 4.10693 26.2498 4.59719C26.7564 5.07332 27.1463 5.65328 27.3908 6.29441C27.5997 6.81455 27.8481 7.59613 27.916 9.03531C27.9893 10.5919 28.0049 11.0587 28.0049 15.0002C28.0049 18.9416 27.9893 19.4083 27.916 20.965C27.8481 22.4042 27.5996 23.1857 27.3908 23.7059C27.137 24.3425 26.7484 24.9207 26.2498 25.4031C25.7512 25.8856 25.1538 26.2618 24.496 26.5073C23.9585 26.7095 23.1509 26.9499 21.6637 27.0156C20.0556 27.0866 19.5732 27.1016 15.5 27.1016C11.4269 27.1016 10.9447 27.0866 9.33637 27.0156C7.84921 26.9499 7.04164 26.7094 6.5041 26.5073C5.84159 26.2707 5.24231 25.8934 4.7503 25.4031C4.24371 24.927 3.85382 24.347 3.6093 23.7059C3.40041 23.1858 3.15193 22.4042 3.08411 20.965C3.01073 19.4085 2.99517 18.9416 2.99517 15.0002C2.99517 11.0587 3.01073 10.592 3.08411 9.03531C3.15199 7.59613 3.40041 6.81461 3.6093 6.29441C3.85385 5.65324 4.24378 5.07327 4.75043 4.59713C5.24243 4.10688 5.84172 3.72956 6.50423 3.49293C7.0417 3.29078 7.84934 3.05031 9.33649 2.98469C10.9449 2.91367 11.4273 2.89861 15.5002 2.89861L15.5 2.89867ZM15.5002 0.238983C11.3577 0.238983 10.8381 0.255975 9.2114 0.327811C7.58783 0.39953 6.4791 0.649022 5.5089 1.01394C4.49114 1.38459 3.56918 1.96561 2.80729 2.7165C2.0312 3.45376 1.43064 4.34599 1.0475 5.33096C0.670716 6.26992 0.412908 7.34289 0.339101 8.91408C0.264568 10.4883 0.247009 10.9911 0.247009 15C0.247009 19.0088 0.264568 19.5117 0.339101 21.0859C0.41321 22.6571 0.671019 23.73 1.0481 24.6689C1.4311 25.6539 2.0315 26.5461 2.80742 27.2834C3.56929 28.0343 4.49126 28.6153 5.50902 28.986C6.47928 29.3509 7.58802 29.6004 9.21152 29.6721C10.8384 29.7439 11.3578 29.7609 15.5003 29.7609C19.6427 29.7609 20.1624 29.7439 21.789 29.6721C23.4126 29.6004 24.5213 29.3509 25.4915 28.986C26.5048 28.6067 27.425 28.0268 28.1932 27.2834C28.9613 26.54 29.5606 25.6495 29.9525 24.6689C30.3295 23.73 30.5873 22.657 30.6615 21.0859C30.7357 19.5115 30.7533 19.0088 30.7533 15C30.7533 10.9912 30.7357 10.4883 30.6615 8.91408C30.5873 7.34289 30.3295 6.26992 29.9525 5.33102C29.5695 4.34609 28.9691 3.45386 28.1931 2.71656C27.4312 1.96552 26.5092 1.38437 25.4914 1.01365C24.5211 0.649022 23.4124 0.39953 21.7888 0.328104C20.1621 0.255975 19.6425 0.238983 15.5 0.238983H15.5002Z" fill="#E68D3C"/>
<path d="M15.5 7.42001C13.9509 7.42001 12.4365 7.86457 11.1484 8.69747C9.86035 9.53037 8.85642 10.7142 8.26359 12.0993C7.67075 13.4843 7.51564 15.0084 7.81786 16.4788C8.12009 17.9491 8.86608 19.2998 9.96149 20.3599C11.0569 21.4199 12.4526 22.1419 13.9719 22.4343C15.4913 22.7268 17.0662 22.5767 18.4974 22.003C19.9287 21.4293 21.152 20.4577 22.0126 19.2112C22.8733 17.9647 23.3327 16.4992 23.3327 15C23.3327 12.9897 22.5074 11.0617 21.0385 9.64014C19.5696 8.21862 17.5774 7.42001 15.5 7.42001ZM15.5 19.9203C14.4944 19.9203 13.5114 19.6317 12.6753 19.091C11.8392 18.5504 11.1876 17.7819 10.8028 16.8829C10.418 15.9838 10.3173 14.9945 10.5135 14.0401C10.7097 13.0856 11.1939 12.2089 11.9049 11.5208C12.616 10.8327 13.5219 10.3641 14.5082 10.1742C15.4945 9.98439 16.5167 10.0818 17.4458 10.4542C18.3748 10.8266 19.1688 11.4573 19.7275 12.2664C20.2862 13.0756 20.5844 14.0269 20.5844 15C20.5844 16.3049 20.0487 17.5564 19.0952 18.4792C18.1417 19.4019 16.8485 19.9203 15.5 19.9203Z" fill="#E68D3C"/>
<path d="M23.6421 8.89183C24.653 8.89183 25.4724 8.09879 25.4724 7.12053C25.4724 6.14228 24.653 5.34924 23.6421 5.34924C22.6312 5.34924 21.8118 6.14228 21.8118 7.12053C21.8118 8.09879 22.6312 8.89183 23.6421 8.89183Z" fill="#E68D3C"/>
</svg>
