<svg width="34" height="31" viewBox="0 0 34 31" fill="none" xmlns="http://www.w3.org/2000/svg">
<path d="M32.4449 7.32434C32.0742 5.92833 30.9818 4.82888 29.5948 4.45576C27.0808 3.77777 17 3.77777 17 3.77777C17 3.77777 6.91924 3.77777 4.40519 4.45576C3.01822 4.82894 1.92585 5.92833 1.55509 7.32434C0.88147 9.85468 0.88147 15.134 0.88147 15.134C0.88147 15.134 0.88147 20.4133 1.55509 22.9437C1.92585 24.3397 3.01822 25.3933 4.40519 25.7665C6.91924 26.4444 17 26.4444 17 26.4444C17 26.4444 27.0808 26.4444 29.5948 25.7665C30.9818 25.3933 32.0742 24.3397 32.4449 22.9437C33.1185 20.4133 33.1185 15.134 33.1185 15.134C33.1185 15.134 33.1185 9.85468 32.4449 7.32434ZM13.703 19.9272V10.3408L22.1286 15.1341L13.703 19.9272Z" fill="#E68D3C"/>
</svg>
